<svg width="30" height="47" fill="none" xmlns="http://www.w3.org/2000/svg"><path fill-rule="evenodd" clip-rule="evenodd" d="M15.5 24a9.5 9.5 0 1 0 0-19 9.5 9.5 0 0 0 0 19z" fill="#444"/><path fill-rule="evenodd" clip-rule="evenodd" d="M15 0C6.715 0 0 6.559 0 14.648c0 13.987 15 32.227 15 32.227s15-18.24 15-32.227C30 6.558 23.284 0 15 0zm0 22.734c-4.474 0-8.1-3.541-8.1-7.91 0-4.368 3.626-7.91 8.1-7.91 4.473 0 8.1 3.542 8.1 7.91 0 4.369-3.627 7.91-8.1 7.91z" fill="#444"/><path d="M21.355 22.14c-.694.36-1.507.653-2.44.88-.92.227-1.927.34-3.02.34-1.134 0-2.18-.18-3.14-.54a7.353 7.353 0 0 1-2.46-1.52 7.025 7.025 0 0 1-1.6-2.34c-.387-.92-.58-1.94-.58-3.06 0-1.133.193-2.16.58-3.08.4-.92.946-1.7 1.64-2.34a7.138 7.138 0 0 1 2.44-1.5 8.605 8.605 0 0 1 3.02-.52c1.12 0 2.16.173 3.12.52.96.333 1.74.787 2.34 1.36l-2.16 2.46c-.334-.387-.774-.7-1.32-.94-.547-.253-1.167-.38-1.86-.38-.6 0-1.154.113-1.66.34-.507.213-.947.52-1.32.92a4.17 4.17 0 0 0-.88 1.4c-.2.533-.3 1.12-.3 1.76 0 .653.093 1.253.28 1.8.186.547.46 1.02.82 1.42.373.387.826.693 1.36.92.546.213 1.166.32 1.86.32.4 0 .78-.027 1.14-.08.36-.067.693-.167 1-.3V17.4h-2.7v-2.76h5.84v7.5z" fill="#EBEBEB"/></svg>